<?xml version="1.0" encoding="utf-8" standalone="no"?>
<!DOCTYPE svg PUBLIC "-//W3C//DTD SVG 1.1//EN"
  "http://www.w3.org/Graphics/SVG/1.1/DTD/svg11.dtd">
<svg xmlns:xlink="http://www.w3.org/1999/xlink" width="864pt" height="298.8pt" viewBox="0 0 864 298.8" xmlns="http://www.w3.org/2000/svg" version="1.1">
 <metadata>
  <rdf:RDF xmlns:dc="http://purl.org/dc/elements/1.1/" xmlns:cc="http://creativecommons.org/ns#" xmlns:rdf="http://www.w3.org/1999/02/22-rdf-syntax-ns#">
   <cc:Work>
    <dc:type rdf:resource="http://purl.org/dc/dcmitype/StillImage"/>
    <dc:format>image/svg+xml</dc:format>
    <dc:creator>
     <cc:Agent>
      <dc:title>Matplotlib; generate-contribution-graph.py</dc:title>
     </cc:Agent>
    </dc:creator>
   </cc:Work>
  </rdf:RDF>
 </metadata>
 <title>GitHub contributions: 2026-08-23 to 2026-09-22; 401 contributions across 29 active days</title><desc>Daily counts, plotted from the public GitHub contribution calendar. Source data: contributions.json.</desc><defs>
  <style type="text/css">*{stroke-linejoin: round; stroke-linecap: butt}</style>
 </defs>
 <g id="figure_1">
  <g id="patch_1">
   <path d="M 0 298.8 
L 864 298.8 
L 864 0 
L 0 0 
z
" style="fill: #0d1117"/>
  </g>
  <g id="axes_1">
   <g id="patch_2">
    <path d="M 64.8 236.052 
L 842.4 236.052 
L 842.4 83.664 
L 64.8 83.664 
z
" style="fill: #0d1117"/>
   </g>
   <g id="FillBetweenPolyCollection_1">
    <defs>
     <path id="m5a6199b693" d="M 72.423529 -62.748 
L 72.423529 -70.127564 
L 97.835294 -191.890373 
L 123.247059 -129.164077 
L 148.658824 -166.061898 
L 174.070588 -99.645821 
L 199.482353 -73.817346 
L 224.894118 -62.748 
L 250.305882 -66.437782 
L 275.717647 -158.682334 
L 301.129412 -118.094731 
L 326.541176 -125.474295 
L 351.952941 -99.645821 
L 377.364706 -129.164077 
L 402.776471 -110.715167 
L 428.188235 -118.094731 
L 453.6 -158.682334 
L 479.011765 -173.441462 
L 504.423529 -169.75168 
L 529.835294 -92.266257 
L 555.247059 -121.784513 
L 580.658824 -73.817346 
L 606.070588 -62.748 
L 631.482353 -114.404949 
L 656.894118 -88.576475 
L 682.305882 -66.437782 
L 707.717647 -88.576475 
L 733.129412 -132.85386 
L 758.541176 -132.85386 
L 783.952941 -66.437782 
L 809.364706 -84.886692 
L 834.776471 -77.507128 
L 834.776471 -62.748 
L 834.776471 -62.748 
L 809.364706 -62.748 
L 783.952941 -62.748 
L 758.541176 -62.748 
L 733.129412 -62.748 
L 707.717647 -62.748 
L 682.305882 -62.748 
L 656.894118 -62.748 
L 631.482353 -62.748 
L 606.070588 -62.748 
L 580.658824 -62.748 
L 555.247059 -62.748 
L 529.835294 -62.748 
L 504.423529 -62.748 
L 479.011765 -62.748 
L 453.6 -62.748 
L 428.188235 -62.748 
L 402.776471 -62.748 
L 377.364706 -62.748 
L 351.952941 -62.748 
L 326.541176 -62.748 
L 301.129412 -62.748 
L 275.717647 -62.748 
L 250.305882 -62.748 
L 224.894118 -62.748 
L 199.482353 -62.748 
L 174.070588 -62.748 
L 148.658824 -62.748 
L 123.247059 -62.748 
L 97.835294 -62.748 
L 72.423529 -62.748 
z
" style="stroke: #ffa36c; stroke-opacity: 0.09"/>
    </defs>
    <g clip-path="url(#p42df187a9e)">
     <use xlink:href="#m5a6199b693" x="0" y="298.8" style="fill: #ffa36c; fill-opacity: 0.09; stroke: #ffa36c; stroke-opacity: 0.09"/>
    </g>
   </g>
   <g id="matplotlib.axis_1">
    <g id="xtick_1">
     <g id="line2d_1"/>
     <g id="text_1">
      <text style="font-size: 10px; font-family: 'DejaVu Sans'; text-anchor: middle; fill: #a6b0bd" x="72.423529" y="253.650438" transform="rotate(-0 72.423529 253.650438)">Aug 23</text>
     </g>
    </g>
    <g id="xtick_2">
     <g id="line2d_2"/>
     <g id="text_2">
      <text style="font-size: 10px; font-family: 'DejaVu Sans'; text-anchor: middle; fill: #a6b0bd" x="199.482353" y="253.650438" transform="rotate(-0 199.482353 253.650438)">Aug 28</text>
     </g>
    </g>
    <g id="xtick_3">
     <g id="line2d_3"/>
     <g id="text_3">
      <text style="font-size: 10px; font-family: 'DejaVu Sans'; text-anchor: middle; fill: #a6b0bd" x="326.541176" y="253.650438" transform="rotate(-0 326.541176 253.650438)">Sep 02</text>
     </g>
    </g>
    <g id="xtick_4">
     <g id="line2d_4"/>
     <g id="text_4">
      <text style="font-size: 10px; font-family: 'DejaVu Sans'; text-anchor: middle; fill: #a6b0bd" x="453.6" y="253.650438" transform="rotate(-0 453.6 253.650438)">Sep 07</text>
     </g>
    </g>
    <g id="xtick_5">
     <g id="line2d_5"/>
     <g id="text_5">
      <text style="font-size: 10px; font-family: 'DejaVu Sans'; text-anchor: middle; fill: #a6b0bd" x="580.658824" y="253.650438" transform="rotate(-0 580.658824 253.650438)">Sep 12</text>
     </g>
    </g>
    <g id="xtick_6">
     <g id="line2d_6"/>
     <g id="text_6">
      <text style="font-size: 10px; font-family: 'DejaVu Sans'; text-anchor: middle; fill: #a6b0bd" x="707.717647" y="253.650438" transform="rotate(-0 707.717647 253.650438)">Sep 17</text>
     </g>
    </g>
    <g id="xtick_7">
     <g id="line2d_7"/>
     <g id="text_7">
      <text style="font-size: 10px; font-family: 'DejaVu Sans'; text-anchor: middle; fill: #a6b0bd" x="834.776471" y="253.650438" transform="rotate(-0 834.776471 253.650438)">Sep 22</text>
     </g>
    </g>
   </g>
   <g id="matplotlib.axis_2">
    <g id="ytick_1">
     <g id="line2d_8">
      <path d="M 64.8 236.052 
L 842.4 236.052 
" clip-path="url(#p42df187a9e)" style="fill: none; stroke: #30363d; stroke-width: 0.8; stroke-linecap: square"/>
     </g>
     <g id="line2d_9"/>
     <g id="text_8">
      <text style="font-size: 10px; font-family: 'DejaVu Sans'; text-anchor: end; fill: #a6b0bd" x="54.8" y="239.851219" transform="rotate(-0 54.8 239.851219)">0</text>
     </g>
    </g>
    <g id="ytick_2">
     <g id="line2d_10">
      <path d="M 64.8 180.705269 
L 842.4 180.705269 
" clip-path="url(#p42df187a9e)" style="fill: none; stroke: #30363d; stroke-width: 0.8; stroke-linecap: square"/>
     </g>
     <g id="line2d_11"/>
     <g id="text_9">
      <text style="font-size: 10px; font-family: 'DejaVu Sans'; text-anchor: end; fill: #a6b0bd" x="54.8" y="184.504488" transform="rotate(-0 54.8 184.504488)">15</text>
     </g>
    </g>
    <g id="ytick_3">
     <g id="line2d_12">
      <path d="M 64.8 125.358538 
L 842.4 125.358538 
" clip-path="url(#p42df187a9e)" style="fill: none; stroke: #30363d; stroke-width: 0.8; stroke-linecap: square"/>
     </g>
     <g id="line2d_13"/>
     <g id="text_10">
      <text style="font-size: 10px; font-family: 'DejaVu Sans'; text-anchor: end; fill: #a6b0bd" x="54.8" y="129.157756" transform="rotate(-0 54.8 129.157756)">30</text>
     </g>
    </g>
   </g>
   <g id="line2d_14">
    <path d="M 72.423529 228.672436 
L 97.835294 106.909627 
L 123.247059 169.635923 
L 148.658824 132.738102 
L 174.070588 199.154179 
L 199.482353 224.982654 
L 224.894118 236.052 
L 250.305882 232.362218 
L 275.717647 140.117666 
L 301.129412 180.705269 
L 326.541176 173.325705 
L 351.952941 199.154179 
L 377.364706 169.635923 
L 402.776471 188.084833 
L 428.188235 180.705269 
L 453.6 140.117666 
L 479.011765 125.358538 
L 504.423529 129.04832 
L 529.835294 206.533743 
L 555.247059 177.015487 
L 580.658824 224.982654 
L 606.070588 236.052 
L 631.482353 184.395051 
L 656.894118 210.223525 
L 682.305882 232.362218 
L 707.717647 210.223525 
L 733.129412 165.94614 
L 758.541176 165.94614 
L 783.952941 232.362218 
L 809.364706 213.913308 
L 834.776471 221.292872 
" clip-path="url(#p42df187a9e)" style="fill: none; stroke: #ffa36c; stroke-width: 2.4; stroke-linecap: square"/>
    <defs>
     <path id="mc460fbb967" d="M 0 2 
C 0.530406 2 1.03916 1.789267 1.414214 1.414214 
C 1.789267 1.03916 2 0.530406 2 0 
C 2 -0.530406 1.789267 -1.03916 1.414214 -1.414214 
C 1.03916 -1.789267 0.530406 -2 0 -2 
C -0.530406 -2 -1.03916 -1.789267 -1.414214 -1.414214 
C -1.789267 -1.03916 -2 -0.530406 -2 0 
C -2 0.530406 -1.789267 1.03916 -1.414214 1.414214 
C -1.03916 1.789267 -0.530406 2 0 2 
z
" style="stroke: #0d1117; stroke-width: 0.7"/>
    </defs>
    <g clip-path="url(#p42df187a9e)">
     <use xlink:href="#mc460fbb967" x="72.423529" y="228.672436" style="fill: #ffa36c; stroke: #0d1117; stroke-width: 0.7"/>
     <use xlink:href="#mc460fbb967" x="97.835294" y="106.909627" style="fill: #ffa36c; stroke: #0d1117; stroke-width: 0.7"/>
     <use xlink:href="#mc460fbb967" x="123.247059" y="169.635923" style="fill: #ffa36c; stroke: #0d1117; stroke-width: 0.7"/>
     <use xlink:href="#mc460fbb967" x="148.658824" y="132.738102" style="fill: #ffa36c; stroke: #0d1117; stroke-width: 0.7"/>
     <use xlink:href="#mc460fbb967" x="174.070588" y="199.154179" style="fill: #ffa36c; stroke: #0d1117; stroke-width: 0.7"/>
     <use xlink:href="#mc460fbb967" x="199.482353" y="224.982654" style="fill: #ffa36c; stroke: #0d1117; stroke-width: 0.7"/>
     <use xlink:href="#mc460fbb967" x="224.894118" y="236.052" style="fill: #ffa36c; stroke: #0d1117; stroke-width: 0.7"/>
     <use xlink:href="#mc460fbb967" x="250.305882" y="232.362218" style="fill: #ffa36c; stroke: #0d1117; stroke-width: 0.7"/>
     <use xlink:href="#mc460fbb967" x="275.717647" y="140.117666" style="fill: #ffa36c; stroke: #0d1117; stroke-width: 0.7"/>
     <use xlink:href="#mc460fbb967" x="301.129412" y="180.705269" style="fill: #ffa36c; stroke: #0d1117; stroke-width: 0.7"/>
     <use xlink:href="#mc460fbb967" x="326.541176" y="173.325705" style="fill: #ffa36c; stroke: #0d1117; stroke-width: 0.7"/>
     <use xlink:href="#mc460fbb967" x="351.952941" y="199.154179" style="fill: #ffa36c; stroke: #0d1117; stroke-width: 0.7"/>
     <use xlink:href="#mc460fbb967" x="377.364706" y="169.635923" style="fill: #ffa36c; stroke: #0d1117; stroke-width: 0.7"/>
     <use xlink:href="#mc460fbb967" x="402.776471" y="188.084833" style="fill: #ffa36c; stroke: #0d1117; stroke-width: 0.7"/>
     <use xlink:href="#mc460fbb967" x="428.188235" y="180.705269" style="fill: #ffa36c; stroke: #0d1117; stroke-width: 0.7"/>
     <use xlink:href="#mc460fbb967" x="453.6" y="140.117666" style="fill: #ffa36c; stroke: #0d1117; stroke-width: 0.7"/>
     <use xlink:href="#mc460fbb967" x="479.011765" y="125.358538" style="fill: #ffa36c; stroke: #0d1117; stroke-width: 0.7"/>
     <use xlink:href="#mc460fbb967" x="504.423529" y="129.04832" style="fill: #ffa36c; stroke: #0d1117; stroke-width: 0.7"/>
     <use xlink:href="#mc460fbb967" x="529.835294" y="206.533743" style="fill: #ffa36c; stroke: #0d1117; stroke-width: 0.7"/>
     <use xlink:href="#mc460fbb967" x="555.247059" y="177.015487" style="fill: #ffa36c; stroke: #0d1117; stroke-width: 0.7"/>
     <use xlink:href="#mc460fbb967" x="580.658824" y="224.982654" style="fill: #ffa36c; stroke: #0d1117; stroke-width: 0.7"/>
     <use xlink:href="#mc460fbb967" x="606.070588" y="236.052" style="fill: #ffa36c; stroke: #0d1117; stroke-width: 0.7"/>
     <use xlink:href="#mc460fbb967" x="631.482353" y="184.395051" style="fill: #ffa36c; stroke: #0d1117; stroke-width: 0.7"/>
     <use xlink:href="#mc460fbb967" x="656.894118" y="210.223525" style="fill: #ffa36c; stroke: #0d1117; stroke-width: 0.7"/>
     <use xlink:href="#mc460fbb967" x="682.305882" y="232.362218" style="fill: #ffa36c; stroke: #0d1117; stroke-width: 0.7"/>
     <use xlink:href="#mc460fbb967" x="707.717647" y="210.223525" style="fill: #ffa36c; stroke: #0d1117; stroke-width: 0.7"/>
     <use xlink:href="#mc460fbb967" x="733.129412" y="165.94614" style="fill: #ffa36c; stroke: #0d1117; stroke-width: 0.7"/>
     <use xlink:href="#mc460fbb967" x="758.541176" y="165.94614" style="fill: #ffa36c; stroke: #0d1117; stroke-width: 0.7"/>
     <use xlink:href="#mc460fbb967" x="783.952941" y="232.362218" style="fill: #ffa36c; stroke: #0d1117; stroke-width: 0.7"/>
     <use xlink:href="#mc460fbb967" x="809.364706" y="213.913308" style="fill: #ffa36c; stroke: #0d1117; stroke-width: 0.7"/>
     <use xlink:href="#mc460fbb967" x="834.776471" y="221.292872" style="fill: #ffa36c; stroke: #0d1117; stroke-width: 0.7"/>
    </g>
   </g>
  </g>
  <g id="text_11">
   <text style="font-weight: 700; font-size: 21px; font-family: 'DejaVu Sans'; text-anchor: start; fill: #f0f6fc" x="23.328" y="25.398" transform="rotate(-0 23.328 25.398)">Contribution activity</text>
  </g>
  <g id="text_12">
   <text style="font-size: 12px; font-family: 'DejaVu Sans'; text-anchor: start; fill: #a6b0bd" x="23.328" y="53.784" transform="rotate(-0 23.328 53.784)">401 contributions  /  29 active days  /  last 31 days</text>
  </g>
  <g id="text_13">
   <text style="font-size: 9px; font-family: 'DejaVu Sans'; text-anchor: start; fill: #a6b0bd" x="23.328" y="286.2504" transform="rotate(-0 23.328 286.2504)">Source: GitHub public profile calendar · Through 2026-09-22 · Today may be incomplete</text>
  </g>
 </g>
 <defs>
  <clipPath id="p42df187a9e">
   <rect x="64.8" y="83.664" width="777.6" height="152.388"/>
  </clipPath>
 </defs>
</svg>
